<?xml version="1.0" encoding="utf-8"?>
<!-- Generator: Adobe Illustrator 17.0.0, SVG Export Plug-In . SVG Version: 6.00 Build 0)  -->
<!DOCTYPE svg PUBLIC "-//W3C//DTD SVG 1.1//EN" "http://www.w3.org/Graphics/SVG/1.1/DTD/svg11.dtd">
<svg version="1.1" id="Layer_1" xmlns="http://www.w3.org/2000/svg" xmlns:xlink="http://www.w3.org/1999/xlink" x="0px" y="0px"
	 width="681.25px" height="95px" viewBox="0 0 681.25 95" enable-background="new 0 0 681.25 95" xml:space="preserve">
<path d="M1.054,78.308l4.276-4.94c9.738,8.985,18.688,13.147,31.711,13.147c13.265,0,22.367-7.465,22.367-17.562v-0.252
	c0-9.348-4.926-14.771-25.013-18.819c-21.21-4.294-29.815-11.5-29.815-24.892v-0.242c0-13.144,11.983-23.244,28.433-23.244
	c12.878,0,21.32,3.541,30.319,10.746l-4.169,5.171c-8.332-7.195-16.678-9.98-26.419-9.98c-12.995,0-21.604,7.458-21.604,16.674
	v0.245c0,9.347,4.815,15.03,25.78,19.327c20.477,4.17,29.044,11.51,29.044,24.391v0.238c0,14.27-12.246,24.136-29.286,24.136
	C22.523,92.454,11.645,87.77,1.054,78.308"/>
<polygon points="128.144,2.773 135.463,2.773 163.254,81.467 189.154,2.517 194.215,2.517 220.102,81.467 247.886,2.773 
	254.729,2.773 222.627,91.819 217.321,91.819 191.421,15.005 165.54,91.819 160.238,91.819 "/>
<path d="M310.711,35.225v-0.242c0-18.063,14.021-33.732,33.19-33.732c19.078,0,32.982,15.41,32.982,33.483v0.249
	c0,18.059-14.011,33.725-33.228,33.725C324.584,68.708,310.711,53.284,310.711,35.225 M370.185,35.225v-0.242
	c0-15.552-11.617-27.915-26.53-27.915c-15.282,0-26.284,12.494-26.284,27.666v0.249c0,15.52,11.624,27.915,26.529,27.915
	C359.214,62.898,370.185,50.393,370.185,35.225"/>
<path d="M443.977,47.234v-0.266c0-24.111,17.818-45.718,44.603-45.718c26.771,0,44.351,21.341,44.351,45.477v0.242
	c0,24.136-17.831,45.743-44.603,45.743C461.549,92.711,443.977,71.37,443.977,47.234 M526.09,47.234v-0.266
	c0-21.839-15.914-39.791-37.763-39.791c-21.852,0-37.511,17.693-37.511,39.549v0.242c0,21.859,15.904,39.791,37.763,39.791
	C510.432,86.759,526.09,69.09,526.09,47.234"/>
<polygon points="605.831,2.773 612.024,2.773 673.001,79.688 673.001,2.773 679.336,2.773 679.336,91.184 674.413,91.184 
	612.125,12.618 612.125,91.184 605.831,91.184 "/>
<rect x="310.712" y="86.887" width="66.172" height="5.821"/>
</svg>
