<svg xmlns="http://www.w3.org/2000/svg" xmlns:xlink="http://www.w3.org/1999/xlink" version="1.1" style="" xml:space="preserve" width="993.3333335982429" height="190.00003218650681"><rect id="backgroundrect" width="100%" height="100%" x="0" y="0" fill="none" stroke="none"/>
<style type="text/css">
	.st0{fill:#3A5799;}
	.st1{fill:#25396B;}
	.st2{fill:#3B5998;}
	.st3{fill:#FFFFFF;}
</style>




<g class="currentLayer" style=""><title>Layer 1</title><g id="svg_1">
	<path class="st0" d="M17,184.6c-5.7,0-10.4-4.7-10.4-10.4v-157c0-5.7,4.7-10.4,10.4-10.4h959c5.7,0,10.4,4.7,10.4,10.4v157   c0,5.7-4.7,10.4-10.4,10.4H17z" id="svg_2"/>
	<path class="st1" d="M976,9.1c4.4,0,8,3.6,8,8v157c0,4.4-3.6,8-8,8H17c-4.4,0-8-3.6-8-8v-157c0-4.4,3.6-8,8-8H976 M976,4.3H17   c-7.1,0-12.8,5.8-12.8,12.8v157c0,7.1,5.8,12.8,12.8,12.8h959c7.1,0,12.8-5.8,12.8-12.8v-157C988.8,10.1,983.1,4.3,976,4.3L976,4.3   z" id="svg_3"/>
</g><g id="svg_4">
	<path class="st2" d="M182.5,94.9c0,47.6-38.6,86.1-86.1,86.1s-86.1-38.6-86.1-86.1c0-47.6,38.6-86.1,86.1-86.1   S182.5,47.3,182.5,94.9L182.5,94.9z M182.5,94.9" id="svg_5"/>
	<path class="st3" d="M118,98.3h-15.4v56.3H79.3V98.3H68.3V78.5h11.1V65.7c0-9.2,4.3-23.5,23.5-23.5l17.2,0.1v19.2h-12.5   c-2.1,0-4.9,1-4.9,5.4v11.6H120L118,98.3z M118,98.3" id="svg_6"/>
</g><g id="svg_7">
	<rect x="176.1999969482422" y="7.099999904632568" class="st1" width="4.400000095367432" height="178.3000030517578" id="svg_8"/>
</g><g id="svg_9">
	<path class="st3" d="M285.5,81.1c-0.2,0.3-0.4,0.6-0.6,0.7s-0.5,0.2-0.8,0.2c-0.4,0-0.8-0.2-1.3-0.5c-0.5-0.4-1.1-0.8-1.8-1.2   c-0.7-0.4-1.6-0.8-2.7-1.2c-1-0.4-2.3-0.5-3.8-0.5c-1.4,0-2.6,0.2-3.7,0.6c-1.1,0.4-2,0.9-2.7,1.5c-0.7,0.6-1.3,1.4-1.6,2.3   c-0.4,0.9-0.5,1.8-0.5,2.8c0,1.3,0.3,2.4,0.9,3.2c0.6,0.8,1.5,1.6,2.5,2.2c1,0.6,2.2,1.1,3.5,1.6c1.3,0.4,2.7,0.9,4,1.4   s2.7,1,4,1.6c1.3,0.6,2.5,1.3,3.5,2.2c1,0.9,1.9,2,2.5,3.3c0.6,1.3,0.9,2.9,0.9,4.8c0,2-0.3,3.9-1,5.7c-0.7,1.8-1.7,3.3-3,4.6   c-1.3,1.3-2.9,2.3-4.9,3.1c-1.9,0.7-4.1,1.1-6.5,1.1c-3,0-5.7-0.5-8.1-1.6c-2.5-1.1-4.5-2.5-6.3-4.4l1.8-3c0.2-0.2,0.4-0.4,0.6-0.6   s0.5-0.2,0.8-0.2c0.4,0,1,0.2,1.5,0.7s1.3,1,2.2,1.6s1.9,1.1,3.1,1.6c1.2,0.5,2.7,0.7,4.5,0.7c1.5,0,2.8-0.2,4-0.6   c1.2-0.4,2.1-1,2.9-1.7s1.4-1.6,1.8-2.7c0.4-1,0.6-2.2,0.6-3.4c0-1.4-0.3-2.5-0.9-3.4c-0.6-0.9-1.5-1.6-2.5-2.2   c-1-0.6-2.2-1.1-3.5-1.5c-1.3-0.4-2.7-0.8-4-1.3c-1.4-0.4-2.7-0.9-4-1.5c-1.3-0.6-2.5-1.3-3.5-2.2s-1.9-2.1-2.5-3.5   c-0.6-1.4-0.9-3.1-0.9-5.1c0-1.6,0.3-3.2,0.9-4.7c0.6-1.5,1.5-2.9,2.7-4c1.2-1.2,2.7-2.1,4.4-2.8c1.8-0.7,3.8-1.1,6.1-1.1   c2.6,0,4.9,0.4,7,1.2c2.1,0.8,4,2,5.6,3.5L285.5,81.1z" id="svg_10"/>
	<path class="st3" d="M302.8,77.2c0,0.6-0.1,1.1-0.3,1.6c-0.2,0.5-0.5,0.9-0.9,1.3c-0.4,0.4-0.8,0.7-1.3,0.9c-0.5,0.2-1,0.3-1.6,0.3   c-0.6,0-1.1-0.1-1.6-0.3c-0.5-0.2-0.9-0.5-1.3-0.9c-0.4-0.4-0.7-0.8-0.9-1.3c-0.2-0.5-0.3-1-0.3-1.6c0-0.6,0.1-1.1,0.3-1.6   c0.2-0.5,0.5-0.9,0.9-1.3c0.4-0.4,0.8-0.7,1.3-0.9c0.5-0.2,1-0.3,1.6-0.3c0.6,0,1.1,0.1,1.6,0.3c0.5,0.2,0.9,0.5,1.3,0.9   c0.4,0.4,0.7,0.8,0.9,1.3C302.6,76.1,302.8,76.7,302.8,77.2z M301.5,87.4V120h-5.7V87.4H301.5z" id="svg_11"/>
	<path class="st3" d="M322.5,86.9c1.4,0,2.7,0.2,4,0.5s2.4,0.8,3.4,1.4h8.8v2.1c0,0.7-0.4,1.2-1.3,1.3l-3.7,0.5   c0.7,1.4,1.1,2.9,1.1,4.7c0,1.6-0.3,3-0.9,4.3c-0.6,1.3-1.5,2.4-2.5,3.3s-2.4,1.6-3.9,2.1c-1.5,0.5-3.1,0.7-4.9,0.7   c-1.5,0-3-0.2-4.3-0.5c-0.7,0.4-1.2,0.9-1.6,1.4c-0.4,0.5-0.5,1-0.5,1.5c0,0.8,0.3,1.4,0.9,1.8s1.4,0.7,2.5,0.9   c1,0.2,2.2,0.3,3.5,0.3c1.3,0,2.6,0,4,0c1.4,0,2.7,0.1,4,0.4c1.3,0.2,2.5,0.6,3.5,1.2c1,0.5,1.9,1.3,2.5,2.2c0.6,1,0.9,2.2,0.9,3.7   c0,1.4-0.3,2.8-1,4.1c-0.7,1.3-1.7,2.5-3,3.5c-1.3,1-2.9,1.9-4.8,2.5c-1.9,0.6-4,0.9-6.4,0.9c-2.4,0-4.5-0.2-6.2-0.7   c-1.8-0.5-3.3-1.1-4.4-1.9c-1.2-0.8-2.1-1.7-2.7-2.8c-0.6-1-0.9-2.1-0.9-3.3c0-1.6,0.5-3,1.5-4.1c1-1.1,2.4-2,4.2-2.7   c-0.9-0.4-1.7-1-2.2-1.7c-0.5-0.7-0.8-1.7-0.8-2.9c0-0.5,0.1-1,0.3-1.5c0.2-0.5,0.4-1,0.8-1.5c0.4-0.5,0.8-1,1.3-1.4   c0.5-0.4,1.1-0.8,1.8-1.2c-1.6-0.9-2.9-2.1-3.8-3.6c-0.9-1.5-1.4-3.2-1.4-5.2c0-1.6,0.3-3,0.9-4.3c0.6-1.3,1.5-2.4,2.6-3.3   c1.1-0.9,2.4-1.6,3.9-2.1C319.1,87.1,320.7,86.9,322.5,86.9z M332.7,121.6c0-0.8-0.2-1.5-0.7-2c-0.4-0.5-1.1-0.9-1.8-1.2   c-0.8-0.3-1.7-0.5-2.7-0.6c-1-0.1-2.1-0.2-3.2-0.2c-1.1,0-2.2,0-3.4,0c-1.2,0-2.3-0.1-3.3-0.4c-1.2,0.6-2.2,1.3-3,2.1   c-0.8,0.8-1.1,1.8-1.1,3c0,0.7,0.2,1.4,0.6,2c0.4,0.6,0.9,1.2,1.7,1.6c0.8,0.5,1.7,0.8,2.9,1.1c1.2,0.3,2.5,0.4,4.1,0.4   c1.5,0,2.9-0.1,4.1-0.4c1.2-0.3,2.3-0.7,3.1-1.2c0.8-0.5,1.5-1.1,1.9-1.9C332.4,123.3,332.7,122.5,332.7,121.6z M322.5,104.1   c1.2,0,2.2-0.2,3.1-0.5c0.9-0.3,1.6-0.8,2.2-1.3c0.6-0.6,1-1.3,1.3-2.1c0.3-0.8,0.4-1.7,0.4-2.7c0-2-0.6-3.6-1.8-4.8   c-1.2-1.2-3-1.8-5.3-1.8c-2.3,0-4,0.6-5.3,1.8c-1.2,1.2-1.8,2.8-1.8,4.8c0,1,0.2,1.8,0.5,2.7c0.3,0.8,0.8,1.5,1.4,2.1   c0.6,0.6,1.3,1,2.2,1.3C320.4,103.9,321.4,104.1,322.5,104.1z" id="svg_12"/>
	<path class="st3" d="M344.4,120V87.4h3.4c0.8,0,1.3,0.4,1.5,1.2l0.4,3.5c1.4-1.6,3-2.8,4.7-3.8s3.8-1.4,6.1-1.4   c1.8,0,3.3,0.3,4.7,0.9c1.4,0.6,2.5,1.4,3.4,2.5c0.9,1.1,1.6,2.4,2.1,3.9c0.5,1.5,0.7,3.2,0.7,5V120h-5.7V99.3   c0-2.5-0.6-4.4-1.7-5.7c-1.1-1.4-2.8-2-5.2-2c-1.7,0-3.3,0.4-4.7,1.2c-1.5,0.8-2.8,1.9-4.1,3.3v24H344.4z" id="svg_13"/>
	<path class="st3" d="M400.8,120h-6.2v-46h6.2V120z" id="svg_14"/>
	<path class="st3" d="M412.2,120V87.4h3.4c0.8,0,1.3,0.4,1.5,1.2l0.4,3.5c1.4-1.6,3-2.8,4.7-3.8s3.8-1.4,6.1-1.4   c1.8,0,3.3,0.3,4.7,0.9c1.4,0.6,2.5,1.4,3.4,2.5c0.9,1.1,1.6,2.4,2.1,3.9c0.5,1.5,0.7,3.2,0.7,5V120h-5.7V99.3   c0-2.5-0.6-4.4-1.7-5.7c-1.1-1.4-2.8-2-5.2-2c-1.7,0-3.3,0.4-4.7,1.2c-1.5,0.8-2.8,1.9-4.1,3.3v24H412.2z" id="svg_15"/>
	<path class="st3" d="M456.1,87.4h4.5c0.5,0,0.9,0.1,1.2,0.4c0.3,0.2,0.5,0.5,0.6,0.8l6.2,20.9c0.2,0.8,0.3,1.5,0.5,2.2   c0.1,0.7,0.3,1.4,0.4,2.2c0.2-0.7,0.4-1.5,0.6-2.2c0.2-0.7,0.4-1.5,0.7-2.2l6.9-21.1c0.1-0.3,0.3-0.6,0.6-0.8   c0.3-0.2,0.6-0.3,1-0.3h2.5c0.4,0,0.8,0.1,1.1,0.3c0.3,0.2,0.5,0.5,0.6,0.8l6.7,21.1c0.2,0.8,0.4,1.5,0.6,2.2   c0.2,0.7,0.4,1.4,0.5,2.2c0.1-0.7,0.2-1.4,0.4-2.2c0.2-0.8,0.4-1.5,0.5-2.2l6.4-20.9c0.1-0.3,0.3-0.6,0.6-0.9   c0.3-0.2,0.7-0.3,1.1-0.3h4.3L493.9,120h-4.5c-0.6,0-0.9-0.4-1.2-1.1L481,96.8c-0.2-0.5-0.3-1-0.4-1.5c-0.1-0.5-0.2-1-0.3-1.5   c-0.1,0.5-0.2,1-0.3,1.5c-0.1,0.5-0.2,1-0.4,1.5l-7.3,22c-0.2,0.7-0.7,1.1-1.3,1.1h-4.3L456.1,87.4z" id="svg_16"/>
	<path class="st3" d="M517.2,77.2c0,0.6-0.1,1.1-0.3,1.6c-0.2,0.5-0.5,0.9-0.9,1.3c-0.4,0.4-0.8,0.7-1.3,0.9c-0.5,0.2-1,0.3-1.6,0.3   s-1.1-0.1-1.6-0.3c-0.5-0.2-0.9-0.5-1.3-0.9c-0.4-0.4-0.7-0.8-0.9-1.3c-0.2-0.5-0.3-1-0.3-1.6c0-0.6,0.1-1.1,0.3-1.6   c0.2-0.5,0.5-0.9,0.9-1.3c0.4-0.4,0.8-0.7,1.3-0.9c0.5-0.2,1-0.3,1.6-0.3s1.1,0.1,1.6,0.3c0.5,0.2,0.9,0.5,1.3,0.9   c0.4,0.4,0.7,0.8,0.9,1.3C517.1,76.1,517.2,76.7,517.2,77.2z M515.9,87.4V120h-5.7V87.4H515.9z" id="svg_17"/>
	<path class="st3" d="M535.9,120.5c-2.6,0-4.5-0.7-5.9-2.2c-1.4-1.4-2.1-3.5-2.1-6.2V92.2H524c-0.3,0-0.6-0.1-0.9-0.3   c-0.2-0.2-0.4-0.5-0.4-0.9v-2.3l5.3-0.7l1.3-10.1c0-0.3,0.2-0.6,0.4-0.8c0.2-0.2,0.5-0.3,0.9-0.3h2.9v11.2h9.3v4.1h-9.3v19.5   c0,1.4,0.3,2.4,1,3.1c0.7,0.7,1.5,1,2.6,1c0.6,0,1.1-0.1,1.6-0.2c0.4-0.2,0.8-0.3,1.1-0.5s0.6-0.4,0.8-0.5s0.4-0.2,0.6-0.2   c0.3,0,0.6,0.2,0.8,0.5l1.7,2.7c-1,0.9-2.2,1.6-3.6,2.2C538.8,120.2,537.4,120.5,535.9,120.5z" id="svg_18"/>
	<path class="st3" d="M550,120V72.7h5.7v19.1c1.4-1.5,2.9-2.7,4.6-3.5c1.7-0.9,3.6-1.3,5.8-1.3c1.8,0,3.3,0.3,4.7,0.9   c1.4,0.6,2.5,1.4,3.4,2.5c0.9,1.1,1.6,2.4,2.1,3.9c0.5,1.5,0.7,3.2,0.7,5V120h-5.7V99.3c0-2.5-0.6-4.4-1.7-5.7   c-1.1-1.4-2.8-2-5.2-2c-1.7,0-3.3,0.4-4.7,1.2c-1.5,0.8-2.8,1.9-4.1,3.3v24H550z" id="svg_19"/>
	<path class="st3" d="M627.4,73.9V79h-22.1v16.1h18.9v5.1h-18.9V120H599v-46H627.4z" id="svg_20"/>
	<path class="st3" d="M658.4,120h-2.5c-0.6,0-1-0.1-1.3-0.3s-0.6-0.5-0.7-1.1l-0.6-3c-0.9,0.8-1.7,1.5-2.5,2.1   c-0.8,0.6-1.7,1.1-2.6,1.5s-1.9,0.7-2.9,0.9c-1,0.2-2.1,0.3-3.4,0.3c-1.3,0-2.4-0.2-3.5-0.5c-1.1-0.4-2.1-0.9-2.9-1.6   c-0.8-0.7-1.5-1.6-1.9-2.7c-0.5-1.1-0.7-2.4-0.7-3.9c0-1.3,0.4-2.5,1.1-3.7c0.7-1.2,1.8-2.3,3.4-3.2c1.6-0.9,3.6-1.7,6.2-2.3   c2.5-0.6,5.7-0.9,9.3-0.9v-2.6c0-2.5-0.5-4.5-1.6-5.8c-1.1-1.3-2.7-2-4.8-2c-1.4,0-2.6,0.2-3.5,0.5c-1,0.4-1.8,0.8-2.5,1.2   c-0.7,0.4-1.3,0.8-1.8,1.2c-0.5,0.4-1,0.5-1.5,0.5c-0.4,0-0.7-0.1-1-0.3c-0.3-0.2-0.5-0.5-0.7-0.8l-1-1.8c1.8-1.7,3.7-3,5.8-3.9   c2.1-0.9,4.4-1.3,6.9-1.3c1.8,0,3.4,0.3,4.9,0.9c1.4,0.6,2.6,1.4,3.6,2.5c1,1.1,1.7,2.4,2.2,3.9c0.5,1.5,0.7,3.2,0.7,5V120z    M643.5,116.5c1,0,1.9-0.1,2.8-0.3c0.8-0.2,1.6-0.5,2.4-0.9c0.7-0.4,1.4-0.8,2.1-1.4c0.7-0.5,1.3-1.1,2-1.8v-6.7   c-2.6,0-4.9,0.2-6.7,0.5c-1.8,0.3-3.3,0.8-4.5,1.3c-1.2,0.5-2,1.2-2.5,1.9c-0.5,0.7-0.8,1.6-0.8,2.5c0,0.9,0.1,1.6,0.4,2.2   c0.3,0.6,0.7,1.1,1.1,1.5c0.5,0.4,1,0.7,1.7,0.9C642.1,116.4,642.8,116.5,643.5,116.5z" id="svg_21"/>
	<path class="st3" d="M689.2,93.2c-0.2,0.2-0.3,0.4-0.5,0.5c-0.2,0.1-0.4,0.2-0.7,0.2s-0.7-0.1-1-0.4c-0.4-0.3-0.9-0.6-1.4-0.9   c-0.6-0.3-1.3-0.6-2.1-0.9c-0.8-0.3-1.8-0.4-3-0.4c-1.6,0-3,0.3-4.2,0.9c-1.2,0.6-2.2,1.4-3.1,2.5c-0.8,1.1-1.4,2.4-1.9,3.9   c-0.4,1.5-0.6,3.2-0.6,5.1c0,2,0.2,3.7,0.7,5.3c0.5,1.5,1.1,2.8,1.9,3.9c0.8,1,1.8,1.8,3,2.4c1.2,0.5,2.5,0.8,3.9,0.8   c1.4,0,2.5-0.2,3.4-0.5s1.6-0.7,2.2-1.1c0.6-0.4,1.1-0.8,1.5-1.1c0.4-0.3,0.8-0.5,1.2-0.5c0.5,0,0.9,0.2,1.1,0.5l1.6,2.1   c-1.4,1.7-3.2,3-5.3,3.8s-4.4,1.2-6.7,1.2c-2,0-3.9-0.4-5.7-1.1c-1.7-0.7-3.3-1.8-4.5-3.3c-1.3-1.4-2.3-3.2-3-5.3   c-0.7-2.1-1.1-4.4-1.1-7.1c0-2.4,0.3-4.7,1-6.7c0.7-2.1,1.7-3.8,3-5.3c1.3-1.5,2.9-2.7,4.8-3.5c1.9-0.8,4.1-1.3,6.6-1.3   c2.3,0,4.3,0.4,6,1.1c1.8,0.7,3.3,1.8,4.7,3.1L689.2,93.2z" id="svg_22"/>
	<path class="st3" d="M709.9,86.9c1.9,0,3.7,0.3,5.4,1c1.6,0.7,3.1,1.6,4.3,2.8c1.2,1.2,2.1,2.8,2.8,4.6c0.7,1.8,1,3.9,1,6.2   c0,0.9-0.1,1.5-0.3,1.8c-0.2,0.3-0.6,0.4-1.1,0.4h-21.7c0,2.1,0.3,3.8,0.8,5.4c0.5,1.5,1.2,2.8,2.1,3.8c0.9,1,2,1.8,3.2,2.3   c1.2,0.5,2.6,0.8,4.2,0.8c1.4,0,2.7-0.2,3.7-0.5c1-0.3,1.9-0.7,2.7-1.1c0.7-0.4,1.4-0.7,1.9-1.1c0.5-0.3,0.9-0.5,1.3-0.5   c0.5,0,0.8,0.2,1.1,0.5l1.6,2.1c-0.7,0.9-1.6,1.6-2.5,2.2c-1,0.6-2,1.2-3.2,1.6c-1.1,0.4-2.3,0.7-3.5,0.9c-1.2,0.2-2.4,0.3-3.6,0.3   c-2.2,0-4.3-0.4-6.2-1.1c-1.9-0.8-3.5-1.9-4.9-3.3c-1.4-1.5-2.5-3.3-3.2-5.4c-0.8-2.2-1.2-4.6-1.2-7.5c0-2.3,0.3-4.4,1-6.4   c0.7-2,1.7-3.7,3-5.1c1.3-1.4,2.9-2.6,4.8-3.4C705.5,87.3,707.6,86.9,709.9,86.9z M710.1,91.1c-2.8,0-4.9,0.8-6.5,2.4   c-1.6,1.6-2.6,3.8-3,6.6h17.7c0-1.3-0.2-2.5-0.5-3.6s-0.9-2.1-1.6-2.9s-1.6-1.4-2.6-1.9C712.5,91.4,711.4,91.1,710.1,91.1z" id="svg_23"/>
	<path class="st3" d="M730.9,120V72.7h5.8v19.5c1.3-1.6,2.9-2.8,4.6-3.8c1.7-1,3.7-1.4,6-1.4c1.9,0,3.6,0.4,5.1,1.1   c1.5,0.7,2.8,1.8,3.9,3.2c1.1,1.4,1.9,3.1,2.5,5.2s0.9,4.4,0.9,7.1c0,2.4-0.3,4.6-1,6.7c-0.6,2.1-1.6,3.9-2.8,5.4   c-1.2,1.5-2.7,2.7-4.4,3.6c-1.7,0.9-3.7,1.3-5.9,1.3c-2.1,0-3.9-0.4-5.3-1.2c-1.5-0.8-2.7-1.9-3.8-3.4l-0.3,3   c-0.2,0.8-0.7,1.2-1.5,1.2H730.9z M745.4,91.5c-1.9,0-3.5,0.4-4.9,1.3c-1.4,0.9-2.7,2.1-3.9,3.6v15.7c1,1.4,2.2,2.4,3.4,3   c1.3,0.6,2.7,0.9,4.2,0.9c3,0,5.4-1.1,7-3.2c1.6-2.2,2.4-5.2,2.4-9.3c0-2.1-0.2-3.9-0.6-5.5c-0.4-1.5-0.9-2.8-1.6-3.7   c-0.7-1-1.6-1.7-2.6-2.1S746.7,91.5,745.4,91.5z" id="svg_24"/>
	<path class="st3" d="M779.8,86.9c2.4,0,4.5,0.4,6.4,1.2c1.9,0.8,3.5,1.9,4.9,3.4c1.3,1.5,2.4,3.2,3.1,5.3c0.7,2.1,1.1,4.4,1.1,6.9   c0,2.6-0.4,4.9-1.1,6.9c-0.7,2.1-1.7,3.8-3.1,5.3c-1.3,1.5-3,2.6-4.9,3.4c-1.9,0.8-4.1,1.2-6.4,1.2c-2.4,0-4.5-0.4-6.4-1.2   c-1.9-0.8-3.5-1.9-4.9-3.4c-1.3-1.5-2.4-3.2-3.1-5.3c-0.7-2.1-1.1-4.4-1.1-6.9c0-2.5,0.4-4.9,1.1-6.9c0.7-2.1,1.8-3.8,3.1-5.3   c1.3-1.5,3-2.6,4.9-3.4C775.3,87.3,777.4,86.9,779.8,86.9z M779.8,116c3.2,0,5.6-1.1,7.2-3.2s2.4-5.2,2.4-9c0-3.9-0.8-6.9-2.4-9.1   s-4-3.2-7.2-3.2c-1.6,0-3,0.3-4.2,0.8c-1.2,0.6-2.2,1.4-3,2.4c-0.8,1-1.4,2.3-1.8,3.9s-0.6,3.3-0.6,5.2s0.2,3.7,0.6,5.2   s1,2.8,1.8,3.8c0.8,1,1.8,1.8,3,2.4C776.8,115.7,778.2,116,779.8,116z" id="svg_25"/>
	<path class="st3" d="M815.5,86.9c2.4,0,4.5,0.4,6.4,1.2c1.9,0.8,3.5,1.9,4.9,3.4c1.3,1.5,2.4,3.2,3.1,5.3c0.7,2.1,1.1,4.4,1.1,6.9   c0,2.6-0.4,4.9-1.1,6.9c-0.7,2.1-1.7,3.8-3.1,5.3c-1.3,1.5-3,2.6-4.9,3.4c-1.9,0.8-4.1,1.2-6.4,1.2c-2.4,0-4.5-0.4-6.4-1.2   c-1.9-0.8-3.5-1.9-4.9-3.4c-1.3-1.5-2.4-3.2-3.1-5.3c-0.7-2.1-1.1-4.4-1.1-6.9c0-2.5,0.4-4.9,1.1-6.9c0.7-2.1,1.8-3.8,3.1-5.3   c1.3-1.5,3-2.6,4.9-3.4C811,87.3,813.2,86.9,815.5,86.9z M815.5,116c3.2,0,5.6-1.1,7.2-3.2s2.4-5.2,2.4-9c0-3.9-0.8-6.9-2.4-9.1   s-4-3.2-7.2-3.2c-1.6,0-3,0.3-4.2,0.8c-1.2,0.6-2.2,1.4-3,2.4c-0.8,1-1.4,2.3-1.8,3.9s-0.6,3.3-0.6,5.2s0.2,3.7,0.6,5.2   s1,2.8,1.8,3.8c0.8,1,1.8,1.8,3,2.4C812.5,115.7,813.9,116,815.5,116z" id="svg_26"/>
	<path class="st3" d="M844,72.7v27.9h1.5c0.4,0,0.8-0.1,1.1-0.2c0.3-0.1,0.6-0.4,0.9-0.7l10.3-11c0.3-0.3,0.6-0.6,1-0.8   c0.3-0.2,0.8-0.3,1.3-0.3h5.2l-12,12.8c-0.3,0.4-0.6,0.7-0.9,1s-0.6,0.5-1,0.7c0.4,0.3,0.7,0.6,1,0.9c0.3,0.3,0.6,0.7,0.9,1.1   L866,120h-5.1c-0.5,0-0.9-0.1-1.2-0.3c-0.3-0.2-0.6-0.5-0.9-0.9L848,105.5c-0.3-0.4-0.6-0.7-1-0.9c-0.3-0.1-0.8-0.2-1.4-0.2H844   V120h-5.8V72.7H844z" id="svg_27"/>
</g></g></svg>