<svg xmlns="http://www.w3.org/2000/svg" xmlns:xlink="http://www.w3.org/1999/xlink" version="1.1" style="enable-background:new 0 0 1000 1000;" xml:space="preserve" width="995.0000000745058" height="192.50001203268744"><rect id="backgroundrect" width="100%" height="100%" x="0" y="0" fill="none" stroke="none"/>
<style type="text/css">
	.st0{fill:#DD4739;}
	.st1{fill:#AD301F;}
	.st2{fill:#DC4E41;}
	.st3{fill:#FFFFFF;}
</style>




<g class="currentLayer" style=""><title>Layer 1</title><g id="svg_1" class="">
	<path class="st0" d="M19,185.5c-5.7,0-10.4-4.7-10.4-10.4v-157c0-5.7,4.7-10.4,10.4-10.4h959c5.7,0,10.4,4.7,10.4,10.4v157   c0,5.7-4.7,10.4-10.4,10.4H19z" id="svg_2"/>
	<path class="st1" d="M978,10.1c4.4,0,8,3.6,8,8v157c0,4.4-3.6,8-8,8H19c-4.4,0-8-3.6-8-8v-157c0-4.4,3.6-8,8-8H978 M978,5.2H19   C11.9,5.2,6.2,11,6.2,18.1v157c0,7.1,5.8,12.8,12.8,12.8h959c7.1,0,12.8-5.8,12.8-12.8v-157C990.8,11,985.1,5.2,978,5.2L978,5.2z" id="svg_3"/>
</g><g id="svg_4" class="">
	<path class="st0" d="M185.7,96.6c0,46.9-38,84.9-84.9,84.9s-84.9-38-84.9-84.9c0-46.9,38-84.9,84.9-84.9S185.7,49.7,185.7,96.6   L185.7,96.6z M185.7,96.6" id="svg_5"/>
	<path class="st2" d="M45.4,100.4C45.1,115,55.2,129,69,133.5c13,4.4,29.1,1.1,37.8-10.1c6.3-7.8,7.8-18.3,7.1-28   c-11.2-0.1-22.3-0.1-33.5-0.1c0,4,0,7.9,0,11.9c6.7,0.2,13.4,0.1,20.1,0.2c-1.7,5.8-5.5,11.2-11.4,13.3c-11.3,5-25.6-1.5-29.2-13.3   c-4.3-11.3,2.7-25,14.3-28.3c7.2-2.5,14.6,0.3,20.7,4c3.1-2.9,6-6,8.9-9.2c-7-5.8-15.9-9.4-25.2-8.6   C60.5,65.7,44.7,82.3,45.4,100.4L45.4,100.4z M45.4,100.4" id="svg_6"/>
	<path class="st2" d="M135.6,85.3c0,3.3-0.1,6.7-0.1,10c-3.3,0-6.7,0.1-10,0.1v10c3.3,0,6.7,0,10,0.1c0,3.3,0,6.7,0.1,10   c3.3,0,6.6,0,10,0c0-3.3,0-6.7,0.1-10c3.3,0,6.7,0,10-0.1v-10c-3.3,0-6.7,0-10-0.1c0-3.3-0.1-6.7-0.1-10   C142.2,85.3,138.9,85.3,135.6,85.3L135.6,85.3z M135.6,85.3" id="svg_7"/>
	<path class="st3" d="M45.4,100.4c-0.7-18.1,15.1-34.7,33.2-35c9.2-0.8,18.2,2.8,25.2,8.6c-2.9,3.1-5.8,6.3-8.9,9.2   c-6.1-3.7-13.5-6.6-20.7-4c-11.6,3.3-18.6,17-14.3,28.3c3.5,11.8,17.9,18.3,29.2,13.3c5.8-2.1,9.7-7.5,11.4-13.3   c-6.7-0.1-13.4-0.1-20.1-0.2c0-4,0-7.9,0-11.9c11.2,0,22.3-0.1,33.5,0c0.7,9.8-0.8,20.2-7.1,28C98.1,134.6,82,137.9,69,133.5   C55.2,129,45.1,115,45.4,100.4L45.4,100.4z M45.4,100.4" id="svg_8"/>
	<path class="st3" d="M135.6,85.3h10c0,3.3,0,6.7,0.1,10c3.3,0,6.7,0.1,10,0.1v10c-3.3,0-6.7,0-10,0.1c0,3.3-0.1,6.7-0.1,10   c-3.3,0-6.7,0-10,0c0-3.3,0-6.7-0.1-10c-3.3,0-6.7-0.1-10-0.1v-10c3.3,0,6.7,0,10-0.1C135.5,92,135.5,88.7,135.6,85.3L135.6,85.3z    M135.6,85.3" id="svg_9"/>
</g><g id="svg_10" class="">
	<rect x="179.3000030517578" y="8.100000381469727" class="st1" width="4.400000095367432" height="178.3000030517578" id="svg_11"/>
</g><g id="svg_12" class="">
	<path class="st3" d="M287.5,80.4c-0.2,0.3-0.4,0.6-0.6,0.7s-0.5,0.2-0.8,0.2c-0.4,0-0.8-0.2-1.3-0.5c-0.5-0.4-1.1-0.8-1.8-1.2   c-0.7-0.4-1.6-0.8-2.7-1.2c-1-0.4-2.3-0.5-3.8-0.5c-1.4,0-2.6,0.2-3.7,0.6c-1.1,0.4-2,0.9-2.7,1.5c-0.7,0.6-1.3,1.4-1.6,2.3   c-0.4,0.9-0.5,1.8-0.5,2.8c0,1.3,0.3,2.4,0.9,3.2c0.6,0.8,1.5,1.6,2.5,2.2c1,0.6,2.2,1.1,3.5,1.6c1.3,0.4,2.7,0.9,4,1.4   s2.7,1,4,1.6c1.3,0.6,2.5,1.3,3.5,2.2c1,0.9,1.9,2,2.5,3.3c0.6,1.3,0.9,2.9,0.9,4.8c0,2-0.3,3.9-1,5.7c-0.7,1.8-1.7,3.3-3,4.6   c-1.3,1.3-2.9,2.3-4.9,3.1c-1.9,0.7-4.1,1.1-6.5,1.1c-3,0-5.7-0.5-8.1-1.6c-2.5-1.1-4.5-2.5-6.3-4.4l1.8-3c0.2-0.2,0.4-0.4,0.6-0.6   s0.5-0.2,0.8-0.2c0.4,0,1,0.2,1.5,0.7s1.3,1,2.2,1.6s1.9,1.1,3.1,1.6c1.2,0.5,2.7,0.7,4.5,0.7c1.5,0,2.8-0.2,4-0.6   c1.2-0.4,2.1-1,2.9-1.7s1.4-1.6,1.8-2.7c0.4-1,0.6-2.2,0.6-3.4c0-1.4-0.3-2.5-0.9-3.4c-0.6-0.9-1.5-1.6-2.5-2.2   c-1-0.6-2.2-1.1-3.5-1.5c-1.3-0.4-2.7-0.8-4-1.3c-1.4-0.4-2.7-0.9-4-1.5c-1.3-0.6-2.5-1.3-3.5-2.2s-1.9-2.1-2.5-3.5   c-0.6-1.4-0.9-3.1-0.9-5.1c0-1.6,0.3-3.2,0.9-4.7c0.6-1.5,1.5-2.9,2.7-4c1.2-1.2,2.7-2.1,4.4-2.8c1.8-0.7,3.8-1.1,6.1-1.1   c2.6,0,4.9,0.4,7,1.2c2.1,0.8,4,2,5.6,3.5L287.5,80.4z" id="svg_13"/>
	<path class="st3" d="M304.8,76.5c0,0.6-0.1,1.1-0.3,1.6c-0.2,0.5-0.5,0.9-0.9,1.3c-0.4,0.4-0.8,0.7-1.3,0.9c-0.5,0.2-1,0.3-1.6,0.3   c-0.6,0-1.1-0.1-1.6-0.3c-0.5-0.2-0.9-0.5-1.3-0.9c-0.4-0.4-0.7-0.8-0.9-1.3c-0.2-0.5-0.3-1-0.3-1.6c0-0.6,0.1-1.1,0.3-1.6   c0.2-0.5,0.5-0.9,0.9-1.3c0.4-0.4,0.8-0.7,1.3-0.9c0.5-0.2,1-0.3,1.6-0.3c0.6,0,1.1,0.1,1.6,0.3c0.5,0.2,0.9,0.5,1.3,0.9   c0.4,0.4,0.7,0.8,0.9,1.3C304.6,75.4,304.8,76,304.8,76.5z M303.5,86.7v32.5h-5.7V86.7H303.5z" id="svg_14"/>
	<path class="st3" d="M324.5,86.2c1.4,0,2.7,0.2,4,0.5s2.4,0.8,3.4,1.4h8.8v2.1c0,0.7-0.4,1.2-1.3,1.3l-3.7,0.5   c0.7,1.4,1.1,2.9,1.1,4.7c0,1.6-0.3,3-0.9,4.3c-0.6,1.3-1.5,2.4-2.5,3.3s-2.4,1.6-3.9,2.1c-1.5,0.5-3.1,0.7-4.9,0.7   c-1.5,0-3-0.2-4.3-0.5c-0.7,0.4-1.2,0.9-1.6,1.4c-0.4,0.5-0.5,1-0.5,1.5c0,0.8,0.3,1.4,0.9,1.8s1.4,0.7,2.5,0.9   c1,0.2,2.2,0.3,3.5,0.3c1.3,0,2.6,0,4,0c1.4,0,2.7,0.1,4,0.4c1.3,0.2,2.5,0.6,3.5,1.2c1,0.5,1.9,1.3,2.5,2.2c0.6,1,0.9,2.2,0.9,3.7   c0,1.4-0.3,2.8-1,4.1c-0.7,1.3-1.7,2.5-3,3.5c-1.3,1-2.9,1.9-4.8,2.5c-1.9,0.6-4,0.9-6.4,0.9c-2.4,0-4.5-0.2-6.2-0.7   c-1.8-0.5-3.3-1.1-4.4-1.9c-1.2-0.8-2.1-1.7-2.7-2.8c-0.6-1-0.9-2.1-0.9-3.3c0-1.6,0.5-3,1.5-4.1c1-1.1,2.4-2,4.2-2.7   c-0.9-0.4-1.7-1-2.2-1.7c-0.5-0.7-0.8-1.7-0.8-2.9c0-0.5,0.1-1,0.3-1.5c0.2-0.5,0.4-1,0.8-1.5c0.4-0.5,0.8-1,1.3-1.4   c0.5-0.4,1.1-0.8,1.8-1.2c-1.6-0.9-2.9-2.1-3.8-3.6c-0.9-1.5-1.4-3.2-1.4-5.2c0-1.6,0.3-3,0.9-4.3c0.6-1.3,1.5-2.4,2.6-3.3   c1.1-0.9,2.4-1.6,3.9-2.1C321.1,86.4,322.7,86.2,324.5,86.2z M334.7,120.9c0-0.8-0.2-1.5-0.7-2c-0.4-0.5-1.1-0.9-1.8-1.2   c-0.8-0.3-1.7-0.5-2.7-0.6c-1-0.1-2.1-0.2-3.2-0.2c-1.1,0-2.2,0-3.4,0c-1.2,0-2.3-0.1-3.3-0.4c-1.2,0.6-2.2,1.3-3,2.1   c-0.8,0.8-1.1,1.8-1.1,3c0,0.7,0.2,1.4,0.6,2c0.4,0.6,0.9,1.2,1.7,1.6c0.8,0.5,1.7,0.8,2.9,1.1c1.2,0.3,2.5,0.4,4.1,0.4   c1.5,0,2.9-0.1,4.1-0.4c1.2-0.3,2.3-0.7,3.1-1.2c0.8-0.5,1.5-1.1,1.9-1.9C334.4,122.6,334.7,121.8,334.7,120.9z M324.5,103.4   c1.2,0,2.2-0.2,3.1-0.5c0.9-0.3,1.6-0.8,2.2-1.3c0.6-0.6,1-1.3,1.3-2.1c0.3-0.8,0.4-1.7,0.4-2.7c0-2-0.6-3.6-1.8-4.8   c-1.2-1.2-3-1.8-5.3-1.8c-2.3,0-4,0.6-5.3,1.8c-1.2,1.2-1.8,2.8-1.8,4.8c0,1,0.2,1.8,0.5,2.7c0.3,0.8,0.8,1.5,1.4,2.1   c0.6,0.6,1.3,1,2.2,1.3C322.4,103.2,323.4,103.4,324.5,103.4z" id="svg_15"/>
	<path class="st3" d="M346.4,119.3V86.7h3.4c0.8,0,1.3,0.4,1.5,1.2l0.4,3.5c1.4-1.6,3-2.8,4.7-3.8s3.8-1.4,6.1-1.4   c1.8,0,3.3,0.3,4.7,0.9c1.4,0.6,2.5,1.4,3.4,2.5c0.9,1.1,1.6,2.4,2.1,3.9c0.5,1.5,0.7,3.2,0.7,5v20.7h-5.7V98.6   c0-2.5-0.6-4.4-1.7-5.7c-1.1-1.4-2.8-2-5.2-2c-1.7,0-3.3,0.4-4.7,1.2c-1.5,0.8-2.8,1.9-4.1,3.3v24H346.4z" id="svg_16"/>
	<path class="st3" d="M402.8,119.3h-6.2v-46h6.2V119.3z" id="svg_17"/>
	<path class="st3" d="M414.2,119.3V86.7h3.4c0.8,0,1.3,0.4,1.5,1.2l0.4,3.5c1.4-1.6,3-2.8,4.7-3.8s3.8-1.4,6.1-1.4   c1.8,0,3.3,0.3,4.7,0.9c1.4,0.6,2.5,1.4,3.4,2.5c0.9,1.1,1.6,2.4,2.1,3.9c0.5,1.5,0.7,3.2,0.7,5v20.7h-5.7V98.6   c0-2.5-0.6-4.4-1.7-5.7c-1.1-1.4-2.8-2-5.2-2c-1.7,0-3.3,0.4-4.7,1.2c-1.5,0.8-2.8,1.9-4.1,3.3v24H414.2z" id="svg_18"/>
	<path class="st3" d="M458.1,86.7h4.5c0.5,0,0.9,0.1,1.2,0.4c0.3,0.2,0.5,0.5,0.6,0.8l6.2,20.9c0.2,0.8,0.3,1.5,0.5,2.2   c0.1,0.7,0.3,1.4,0.4,2.2c0.2-0.7,0.4-1.5,0.6-2.2c0.2-0.7,0.4-1.5,0.7-2.2l6.9-21.1c0.1-0.3,0.3-0.6,0.6-0.8   c0.3-0.2,0.6-0.3,1-0.3h2.5c0.4,0,0.8,0.1,1.1,0.3c0.3,0.2,0.5,0.5,0.6,0.8l6.7,21.1c0.2,0.8,0.4,1.5,0.6,2.2   c0.2,0.7,0.4,1.4,0.5,2.2c0.1-0.7,0.2-1.4,0.4-2.2c0.2-0.8,0.4-1.5,0.5-2.2l6.4-20.9c0.1-0.3,0.3-0.6,0.6-0.9   c0.3-0.2,0.7-0.3,1.1-0.3h4.3l-10.5,32.5h-4.5c-0.6,0-0.9-0.4-1.2-1.1L483,96.1c-0.2-0.5-0.3-1-0.4-1.5c-0.1-0.5-0.2-1-0.3-1.5   c-0.1,0.5-0.2,1-0.3,1.5c-0.1,0.5-0.2,1-0.4,1.5l-7.3,22c-0.2,0.7-0.7,1.1-1.3,1.1h-4.3L458.1,86.7z" id="svg_19"/>
	<path class="st3" d="M519.2,76.5c0,0.6-0.1,1.1-0.3,1.6c-0.2,0.5-0.5,0.9-0.9,1.3c-0.4,0.4-0.8,0.7-1.3,0.9c-0.5,0.2-1,0.3-1.6,0.3   s-1.1-0.1-1.6-0.3c-0.5-0.2-0.9-0.5-1.3-0.9c-0.4-0.4-0.7-0.8-0.9-1.3c-0.2-0.5-0.3-1-0.3-1.6c0-0.6,0.1-1.1,0.3-1.6   c0.2-0.5,0.5-0.9,0.9-1.3c0.4-0.4,0.8-0.7,1.3-0.9c0.5-0.2,1-0.3,1.6-0.3s1.1,0.1,1.6,0.3c0.5,0.2,0.9,0.5,1.3,0.9   c0.4,0.4,0.7,0.8,0.9,1.3C519.1,75.4,519.2,76,519.2,76.5z M517.9,86.7v32.5h-5.7V86.7H517.9z" id="svg_20"/>
	<path class="st3" d="M537.9,119.8c-2.6,0-4.5-0.7-5.9-2.2c-1.4-1.4-2.1-3.5-2.1-6.2V91.5H526c-0.3,0-0.6-0.1-0.9-0.3   c-0.2-0.2-0.4-0.5-0.4-0.9V88l5.3-0.7l1.3-10.1c0-0.3,0.2-0.6,0.4-0.8c0.2-0.2,0.5-0.3,0.9-0.3h2.9v11.2h9.3v4.1h-9.3v19.5   c0,1.4,0.3,2.4,1,3.1c0.7,0.7,1.5,1,2.6,1c0.6,0,1.1-0.1,1.6-0.2c0.4-0.2,0.8-0.3,1.1-0.5s0.6-0.4,0.8-0.5s0.4-0.2,0.6-0.2   c0.3,0,0.6,0.2,0.8,0.5l1.7,2.7c-1,0.9-2.2,1.6-3.6,2.2C540.8,119.5,539.4,119.8,537.9,119.8z" id="svg_21"/>
	<path class="st3" d="M552,119.3V72h5.7v19.1c1.4-1.5,2.9-2.7,4.6-3.5c1.7-0.9,3.6-1.3,5.8-1.3c1.8,0,3.3,0.3,4.7,0.9   c1.4,0.6,2.5,1.4,3.4,2.5c0.9,1.1,1.6,2.4,2.1,3.9c0.5,1.5,0.7,3.2,0.7,5v20.7h-5.7V98.6c0-2.5-0.6-4.4-1.7-5.7   c-1.1-1.4-2.8-2-5.2-2c-1.7,0-3.3,0.4-4.7,1.2c-1.5,0.8-2.8,1.9-4.1,3.3v24H552z" id="svg_22"/>
	<path class="st3" d="M621.5,114.8c1.2,0,2.4-0.1,3.4-0.2c1-0.1,2-0.3,2.9-0.5c0.9-0.2,1.8-0.5,2.6-0.9c0.8-0.3,1.6-0.7,2.4-1.1   v-10.2h-7.1c-0.4,0-0.7-0.1-1-0.4s-0.4-0.5-0.4-0.9v-3.5h14.1v17.7c-1.2,0.8-2.4,1.6-3.6,2.2s-2.6,1.1-4,1.6   c-1.4,0.4-3,0.7-4.6,0.9c-1.6,0.2-3.4,0.3-5.3,0.3c-3.3,0-6.4-0.6-9.2-1.7c-2.8-1.1-5.2-2.8-7.2-4.8c-2-2.1-3.6-4.5-4.7-7.4   c-1.1-2.9-1.7-6.1-1.7-9.5c0-3.5,0.6-6.7,1.7-9.6c1.1-2.9,2.7-5.4,4.7-7.4c2-2.1,4.5-3.7,7.4-4.8c2.9-1.1,6.2-1.7,9.8-1.7   c1.8,0,3.5,0.1,5.1,0.4c1.6,0.3,3,0.7,4.4,1.2c1.3,0.5,2.6,1.1,3.7,1.8c1.1,0.7,2.2,1.5,3.2,2.4l-1.8,2.8c-0.4,0.6-0.8,0.9-1.4,0.9   c-0.3,0-0.7-0.1-1.1-0.4c-0.5-0.3-1.1-0.7-1.8-1.1c-0.7-0.4-1.5-0.8-2.4-1.2c-1-0.4-2.1-0.7-3.4-1c-1.3-0.3-2.8-0.4-4.6-0.4   c-2.6,0-4.9,0.4-7,1.3c-2.1,0.8-3.9,2.1-5.4,3.6s-2.6,3.5-3.4,5.7c-0.8,2.2-1.2,4.7-1.2,7.5c0,2.9,0.4,5.5,1.2,7.8   c0.8,2.3,2,4.2,3.5,5.8s3.3,2.8,5.3,3.6C616.8,114.3,619,114.8,621.5,114.8z" id="svg_23"/>
	<path class="st3" d="M660.4,86.2c2.4,0,4.5,0.4,6.4,1.2c1.9,0.8,3.5,1.9,4.9,3.4c1.3,1.5,2.4,3.2,3.1,5.3c0.7,2.1,1.1,4.4,1.1,6.9   c0,2.6-0.4,4.9-1.1,6.9c-0.7,2.1-1.7,3.8-3.1,5.3c-1.3,1.5-3,2.6-4.9,3.4c-1.9,0.8-4.1,1.2-6.4,1.2c-2.4,0-4.5-0.4-6.4-1.2   c-1.9-0.8-3.5-1.9-4.9-3.4c-1.3-1.5-2.4-3.2-3.1-5.3c-0.7-2.1-1.1-4.4-1.1-6.9c0-2.5,0.4-4.9,1.1-6.9c0.7-2.1,1.8-3.8,3.1-5.3   c1.3-1.5,3-2.6,4.9-3.4C655.9,86.6,658.1,86.2,660.4,86.2z M660.4,115.3c3.2,0,5.6-1.1,7.2-3.2s2.4-5.2,2.4-9   c0-3.9-0.8-6.9-2.4-9.1s-4-3.2-7.2-3.2c-1.6,0-3,0.3-4.2,0.8c-1.2,0.6-2.2,1.4-3,2.4c-0.8,1-1.4,2.3-1.8,3.9s-0.6,3.3-0.6,5.2   s0.2,3.7,0.6,5.2s1,2.8,1.8,3.8c0.8,1,1.8,1.8,3,2.4C657.4,115,658.8,115.3,660.4,115.3z" id="svg_24"/>
	<path class="st3" d="M696.2,86.2c2.4,0,4.5,0.4,6.4,1.2c1.9,0.8,3.5,1.9,4.9,3.4c1.3,1.5,2.4,3.2,3.1,5.3c0.7,2.1,1.1,4.4,1.1,6.9   c0,2.6-0.4,4.9-1.1,6.9c-0.7,2.1-1.7,3.8-3.1,5.3c-1.3,1.5-3,2.6-4.9,3.4c-1.9,0.8-4.1,1.2-6.4,1.2c-2.4,0-4.5-0.4-6.4-1.2   c-1.9-0.8-3.5-1.9-4.9-3.4c-1.3-1.5-2.4-3.2-3.1-5.3c-0.7-2.1-1.1-4.4-1.1-6.9c0-2.5,0.4-4.9,1.1-6.9c0.7-2.1,1.8-3.8,3.1-5.3   c1.3-1.5,3-2.6,4.9-3.4C691.6,86.6,693.8,86.2,696.2,86.2z M696.2,115.3c3.2,0,5.6-1.1,7.2-3.2s2.4-5.2,2.4-9   c0-3.9-0.8-6.9-2.4-9.1s-4-3.2-7.2-3.2c-1.6,0-3,0.3-4.2,0.8c-1.2,0.6-2.2,1.4-3,2.4c-0.8,1-1.4,2.3-1.8,3.9s-0.6,3.3-0.6,5.2   s0.2,3.7,0.6,5.2s1,2.8,1.8,3.8c0.8,1,1.8,1.8,3,2.4C693.1,115,694.5,115.3,696.2,115.3z" id="svg_25"/>
	<path class="st3" d="M729.7,86.2c1.4,0,2.7,0.2,4,0.5s2.4,0.8,3.4,1.4h8.8v2.1c0,0.7-0.4,1.2-1.3,1.3l-3.7,0.5   c0.7,1.4,1.1,2.9,1.1,4.7c0,1.6-0.3,3-0.9,4.3c-0.6,1.3-1.5,2.4-2.5,3.3c-1.1,0.9-2.4,1.6-3.9,2.1c-1.5,0.5-3.1,0.7-4.9,0.7   c-1.5,0-3-0.2-4.3-0.5c-0.7,0.4-1.2,0.9-1.6,1.4c-0.4,0.5-0.5,1-0.5,1.5c0,0.8,0.3,1.4,0.9,1.8s1.4,0.7,2.5,0.9s2.2,0.3,3.5,0.3   c1.3,0,2.6,0,4,0s2.7,0.1,4,0.4c1.3,0.2,2.5,0.6,3.5,1.2c1,0.5,1.9,1.3,2.5,2.2c0.6,1,0.9,2.2,0.9,3.7c0,1.4-0.3,2.8-1,4.1   c-0.7,1.3-1.7,2.5-3,3.5c-1.3,1-2.9,1.9-4.8,2.5c-1.9,0.6-4,0.9-6.4,0.9s-4.5-0.2-6.2-0.7c-1.8-0.5-3.3-1.1-4.5-1.9   c-1.2-0.8-2.1-1.7-2.7-2.8c-0.6-1-0.9-2.1-0.9-3.3c0-1.6,0.5-3,1.5-4.1c1-1.1,2.4-2,4.2-2.7c-0.9-0.4-1.7-1-2.2-1.7   s-0.8-1.7-0.8-2.9c0-0.5,0.1-1,0.3-1.5c0.2-0.5,0.4-1,0.8-1.5c0.4-0.5,0.8-1,1.3-1.4c0.5-0.4,1.1-0.8,1.8-1.2   c-1.6-0.9-2.9-2.1-3.8-3.6c-0.9-1.5-1.4-3.2-1.4-5.2c0-1.6,0.3-3,0.9-4.3c0.6-1.3,1.5-2.4,2.6-3.3c1.1-0.9,2.4-1.6,3.9-2.1   C726.2,86.4,727.9,86.2,729.7,86.2z M739.8,120.9c0-0.8-0.2-1.5-0.7-2c-0.5-0.5-1.1-0.9-1.8-1.2c-0.8-0.3-1.7-0.5-2.7-0.6   s-2.1-0.2-3.2-0.2c-1.1,0-2.2,0-3.4,0c-1.2,0-2.3-0.1-3.3-0.4c-1.2,0.6-2.2,1.3-3,2.1c-0.8,0.8-1.1,1.8-1.1,3c0,0.7,0.2,1.4,0.6,2   c0.4,0.6,0.9,1.2,1.7,1.6c0.8,0.5,1.7,0.8,2.9,1.1c1.2,0.3,2.5,0.4,4.1,0.4c1.5,0,2.9-0.1,4.1-0.4c1.2-0.3,2.3-0.7,3.1-1.2   c0.8-0.5,1.5-1.1,1.9-1.9C739.6,122.6,739.8,121.8,739.8,120.9z M729.7,103.4c1.2,0,2.2-0.2,3.1-0.5s1.6-0.8,2.2-1.3   c0.6-0.6,1-1.3,1.3-2.1s0.5-1.7,0.5-2.7c0-2-0.6-3.6-1.8-4.8c-1.2-1.2-3-1.8-5.3-1.8c-2.3,0-4,0.6-5.3,1.8   c-1.2,1.2-1.8,2.8-1.8,4.8c0,1,0.2,1.8,0.5,2.7s0.8,1.5,1.4,2.1c0.6,0.6,1.3,1,2.2,1.3S728.5,103.4,729.7,103.4z" id="svg_26"/>
	<path class="st3" d="M757.9,72v47.3h-5.7V72H757.9z" id="svg_27"/>
	<path class="st3" d="M780.9,86.2c1.9,0,3.7,0.3,5.4,1c1.6,0.7,3.1,1.6,4.3,2.8c1.2,1.2,2.1,2.8,2.8,4.6c0.7,1.8,1,3.9,1,6.2   c0,0.9-0.1,1.5-0.3,1.8c-0.2,0.3-0.6,0.4-1.1,0.4h-21.7c0,2.1,0.3,3.8,0.8,5.4c0.5,1.5,1.2,2.8,2.1,3.8c0.9,1,2,1.8,3.2,2.3   c1.2,0.5,2.6,0.8,4.2,0.8c1.4,0,2.7-0.2,3.7-0.5c1-0.3,1.9-0.7,2.7-1.1c0.7-0.4,1.4-0.7,1.9-1.1c0.5-0.3,0.9-0.5,1.3-0.5   c0.5,0,0.8,0.2,1.1,0.5l1.6,2.1c-0.7,0.9-1.6,1.6-2.5,2.2c-1,0.6-2,1.2-3.2,1.6c-1.1,0.4-2.3,0.7-3.5,0.9c-1.2,0.2-2.4,0.3-3.6,0.3   c-2.2,0-4.3-0.4-6.2-1.1c-1.9-0.8-3.5-1.9-4.9-3.3c-1.4-1.5-2.5-3.3-3.2-5.4c-0.8-2.2-1.2-4.6-1.2-7.5c0-2.3,0.3-4.4,1-6.4   c0.7-2,1.7-3.7,3-5.1c1.3-1.4,2.9-2.6,4.8-3.4C776.4,86.6,778.5,86.2,780.9,86.2z M781,90.4c-2.8,0-4.9,0.8-6.5,2.4   c-1.6,1.6-2.6,3.8-3,6.6h17.7c0-1.3-0.2-2.5-0.5-3.6s-0.9-2.1-1.6-2.9s-1.6-1.4-2.6-1.9C783.5,90.7,782.3,90.4,781,90.4z" id="svg_28"/>
</g><path fill="" fill-opacity="1" stroke="none" stroke-opacity="1" stroke-width="1" stroke-dasharray="none" stroke-linejoin="miter" stroke-linecap="butt" stroke-dashoffset="" fill-rule="nonzero" opacity="1" marker-start="" marker-mid="" marker-end="" id="svg_29" d="M1137.4999830499294,407.4999939277769 " style="color: rgb(0, 0, 0);"/></g></svg>